<svg width="30" height="23" viewBox="0 0 30 23" fill="none" xmlns="http://www.w3.org/2000/svg">
<path d="M0 20.5647C0 20.1229 0.358172 19.7647 0.8 19.7647H29.2C29.6418 19.7647 30 20.1229 30 20.5647V21.9647C30 22.4065 29.6418 22.7647 29.2 22.7647H0.799999C0.358171 22.7647 0 22.4065 0 21.9647V20.5647Z" fill="white"/>
<path d="M0 10.8C0 10.3582 0.358172 10 0.8 10H29.2C29.6418 10 30 10.3582 30 10.8V12.2C30 12.6418 29.6418 13 29.2 13H0.799999C0.358171 13 0 12.6418 0 12.2V10.8Z" fill="white"/>
<path d="M0 0.8C0 0.358172 0.358172 0 0.8 0H29.2C29.6418 0 30 0.358172 30 0.8V2.2C30 2.64183 29.6418 3 29.2 3H0.799999C0.358171 3 0 2.64183 0 2.2V0.8Z" fill="white"/>
</svg>
