<svg version="1.1" xmlns="http://www.w3.org/2000/svg" viewBox="0 0 147.16834579592296 147.16834579592285" width="147.16834579592296" height="147.16834579592285">
  <!-- svg-source:excalidraw -->
  
  <defs>
    <style>
      @font-face {
        font-family: "Virgil";
        src: url("https://excalidraw.com/Virgil.woff2");
      }
      @font-face {
        font-family: "Cascadia";
        src: url("https://excalidraw.com/Cascadia.woff2");
      }
    </style>
  </defs>
  <g stroke-opacity="0.7" fill-opacity="0.7" stroke-linecap="round" transform="translate(10.000000000000114 10) rotate(27.499283046078716 63.58417289796142 63.58417289796142)"><path d="M20.37 19.04 C20.37 19.04, 20.37 19.04, 20.37 19.04 M20.37 19.04 C20.37 19.04, 20.37 19.04, 20.37 19.04 M1.83 44.61 C14.33 37.79, 17.96 25.89, 28.96 9.67 M2.27 43.92 C14.42 36.29, 22.67 24.72, 28.75 11.89 M5.11 50.35 C15.22 34, 27.57 22.09, 44.52 8.32 M3.04 49.48 C14.95 36.7, 30.24 20.56, 41.33 7.32 M4.33 61.8 C16.39 35.91, 36.02 20.68, 44.66 4.39 M3.18 56.06 C15.26 45.93, 26.33 31.11, 47.51 6.73 M3.33 66.33 C12.44 47.32, 25.36 37.61, 51.25 1.94 M3.67 63.8 C21.02 41.67, 42.23 14.62, 52.87 6.52 M-0.93 71.84 C16.67 51.3, 27.44 35.61, 56.32 6.47 M3.37 71.04 C21.07 49.83, 41.94 24.03, 58.37 4.67 M2.35 75.7 C16.42 59.95, 31.51 44.18, 67.46 1.57 M2.61 75.26 C15.96 57.17, 29.16 40.67, 66.6 3.51 M1.81 82.84 C22.62 57.88, 36.96 39.18, 71.17 -0.74 M4.22 81.22 C17.08 63.2, 32.49 46.45, 72.1 4.12 M3.41 80.62 C33.7 55.46, 53.7 26.01, 76.25 2.89 M7.8 83.95 C33.78 52.88, 63.22 19.69, 77.71 3.25 M6.99 91.73 C28.24 60.74, 56.74 33.85, 82.54 4.51 M7.38 87.68 C28.09 65.93, 48.79 43.53, 82.18 2.8 M6.43 92.3 C39.49 61.58, 67.47 31.1, 86.15 8.43 M10.4 91.98 C37.68 59.22, 67.48 26.26, 86.41 3.45 M10.96 100.53 C31.94 78.63, 51.52 51.95, 86.33 7.98 M12.01 98.5 C32.04 72.11, 57.13 45.24, 91.23 5.39 M14.56 101.29 C36.91 69.01, 66.77 36.88, 89.45 10.48 M11.41 99.63 C28.08 79.81, 47.78 56.7, 94.28 7.49 M17.34 102.79 C32.15 84.82, 53.35 57.19, 99.68 13 M14.14 105.2 C41.52 75.18, 65.76 44.28, 95.71 11 M20.19 107.66 C52.51 67.59, 85.22 35.92, 101.1 10.15 M17.69 109.65 C44.34 75.4, 73.53 44.05, 101.14 13.48 M18.29 110.12 C52.35 69.3, 84.52 34.69, 107.02 14.74 M21.92 111.26 C49.42 74.12, 81.22 40.55, 105.96 13.48 M22.34 112.07 C44.46 95.81, 63.03 74.51, 108.04 19.89 M25.29 112.27 C43.05 88.49, 61.35 66.84, 108.38 18.76 M22.69 117.22 C41.11 97.84, 62.27 73.62, 109.42 23.16 M25.82 115.15 C53.96 81.12, 86.71 44.25, 109.59 22.43 M30.66 119.74 C55.57 83.59, 92.6 53, 108.44 23.69 M29.48 119.2 C46.74 98.89, 66.69 75.39, 112.23 22.15 M36.61 120.08 C60.63 94.41, 81.97 59.79, 113.81 24.53 M33.1 118.55 C63.16 81.58, 95.35 46.03, 114.61 26.61 M32.69 124.69 C64.97 87.13, 95.7 52.53, 116.38 28.34 M38.06 121.84 C64.78 90.86, 93.67 57.15, 118.43 29.16 M39.42 124.52 C52.84 99.74, 70.79 81.22, 118.46 29.45 M41.89 124.87 C57.34 106.96, 74.12 84.16, 121 32.03 M45.23 122.51 C64.47 100.77, 87.41 79.13, 120.59 33.49 M44.64 126.08 C72.36 88.68, 101.29 58.45, 122.95 36.02 M54.39 123.14 C67.97 105.24, 85.62 81.07, 123.54 37.31 M49.84 126.21 C68.26 105.64, 88.55 82.97, 125.22 40.43 M57.08 128.36 C72.13 109.31, 86.26 84.64, 124.41 47.07 M53.44 124.26 C73.53 105.13, 91.9 84.74, 125.98 43.23 M58.12 122.9 C81.35 103.21, 96.1 77.49, 129.89 46.35 M61.52 124.91 C78.71 104.69, 93.92 86.54, 124.99 49.26 M62.3 126.95 C87.22 102.88, 113.69 71.53, 126.42 56.56 M66.53 127.22 C80.81 104.84, 96.11 86.34, 126.53 52.69 M70.48 126.29 C88.13 108.37, 99.66 94.19, 128.18 55.07 M68.35 128.81 C85.35 107.72, 99.59 88.15, 130.46 59.18 M72.17 124.58 C93.04 110.35, 101.92 93.17, 130.48 67.29 M77.8 126.26 C90.59 111.31, 105.33 96.08, 130.47 64.07 M85.14 119.84 C101.27 108.42, 113.55 91.46, 131.12 71.84 M81.16 125.63 C96.63 109.29, 106.98 96.78, 130.42 69.58 M87.92 120.29 C103.89 107.58, 106.41 100.58, 128.49 80.42 M91.66 122.34 C103.63 108.25, 113.41 94.63, 127.34 82.76 M95.22 115.19 C104.06 105.42, 112.96 99.67, 122.76 93.36 M97.8 118.13 C101.46 112.99, 110.11 105.47, 119.58 91.11" stroke="#d9d9d9" stroke-width="0.5" fill="none"></path><path d="M46.77 4.04 C55.98 0.4, 68.29 -0.57, 77.61 0.81 C86.94 2.19, 95.37 6.16, 102.71 12.31 C110.05 18.47, 117.32 28.23, 121.66 37.73 C126.01 47.23, 129.4 59.48, 128.8 69.3 C128.2 79.12, 123.32 88.63, 118.05 96.65 C112.79 104.66, 105.66 112.54, 97.2 117.4 C88.73 122.26, 77.57 124.88, 67.28 125.79 C56.98 126.69, 44.43 126.48, 35.42 122.81 C26.41 119.14, 18.94 111.73, 13.23 103.77 C7.52 95.81, 2.84 84.98, 1.17 75.04 C-0.49 65.09, 0.05 53.41, 3.24 44.09 C6.42 34.78, 9.24 26.48, 20.28 19.15 C31.31 11.82, 57.98 1.78, 69.45 0.11 C80.91 -1.55, 89.46 8.41, 89.06 9.17" stroke="#d9d9d9" stroke-width="1.5" fill="none" stroke-dasharray="1.5 7"></path></g><g stroke-linecap="round" transform="translate(93.30589147624448 51.28903398024107) rotate(0 9.218508258317058 8.036646375580887)"><path d="M3.3 1.54 C3.3 1.54, 3.3 1.54, 3.3 1.54 M3.3 1.54 C3.3 1.54, 3.3 1.54, 3.3 1.54 M1.19 10.97 C2.34 7.81, 5.13 6.59, 10.71 0.63 M1.91 10.21 C4.51 8.35, 4.83 4.03, 8.67 2.14 M0.97 15.86 C5.24 7.51, 11.11 4.73, 10.9 5.17 M2.99 15.09 C3.69 10.08, 8.27 7.53, 13.94 1.09 M9.47 14.01 C6.17 15.65, 9.18 12.51, 17.9 6.02 M6.92 17.74 C11.09 11.78, 12.55 9.02, 17.43 3.01 M9.78 18.27 C12.46 11.84, 13.89 12.94, 22.48 8.39 M10.2 18.58 C12.71 13.02, 18.18 10.56, 18.87 8.13" stroke="#d9d9d9" stroke-width="0.5" fill="none"></path><path d="M6.49 -0.5 C8.32 -0.98, 10.87 0.94, 12.87 1.94 C14.86 2.94, 17.36 4.03, 18.48 5.49 C19.61 6.94, 20.16 9.43, 19.61 10.66 C19.07 11.89, 17.03 11.83, 15.21 12.89 C13.38 13.95, 10.75 16.9, 8.65 17.02 C6.55 17.15, 4.16 15.04, 2.62 13.62 C1.08 12.2, -0.73 10.52, -0.6 8.49 C-0.48 6.46, 1.22 3.01, 3.36 1.47 C5.5 -0.07, 9.68 -1.53, 12.22 -0.74 C14.76 0.05, 18.43 5.94, 18.62 6.2" stroke="#d9d9d9" stroke-width="1.5" fill="none" stroke-dasharray="1.5 7"></path></g><g stroke-linecap="round" transform="translate(35.51297918245518 36.44606760622628) rotate(0 16.782435128097177 15.836951032042634)"><path d="M3.24 6.79 C3.24 6.79, 3.24 6.79, 3.24 6.79 M3.24 6.79 C3.24 6.79, 3.24 6.79, 3.24 6.79 M1.87 14.84 C4.43 12.58, 6.49 8.38, 15.89 -1.1 M1.42 15.52 C6.14 9.75, 10.89 5.54, 13.69 0.09 M2.88 20.88 C7.42 12.96, 16.06 4.5, 17.33 1.92 M2.1 20.5 C8.82 13.76, 13.31 5.52, 17.61 2.16 M3.36 25.07 C10.45 17.59, 15.42 10.54, 23.06 0.21 M4.44 23.02 C11.84 15.17, 18.6 7.64, 24.19 1.95 M6.95 26.58 C11.97 19.31, 19.28 13.92, 25.69 5.84 M5.27 28.34 C12.91 20.23, 18.51 14.58, 25.65 4.26 M10.06 30.22 C18.8 21.24, 25.24 14.95, 29.44 8.3 M10.7 30.07 C16.41 21.79, 21.18 14.65, 28.54 7.26 M12.02 32.3 C19.7 23.89, 30.27 15.11, 34.89 9.6 M13.67 32.01 C20.3 25.57, 25.57 17.87, 32.93 8.68 M18.27 35.16 C20.29 25.79, 27.64 20.06, 31.76 15.17 M15.71 33.74 C22.41 27.5, 27.35 21.19, 32.66 14.65" stroke="#d9d9d9" stroke-width="0.5" fill="none"></path><path d="M23.64 1.83 C26.81 3.08, 31.03 6.15, 32.53 9.05 C34.02 11.94, 33.59 15.96, 32.61 19.2 C31.64 22.43, 29.68 26.23, 26.69 28.45 C23.7 30.66, 18.43 32.9, 14.65 32.49 C10.86 32.08, 6.37 28.46, 3.98 26 C1.58 23.54, 0.45 20.9, 0.28 17.74 C0.12 14.59, 0.83 9.98, 3 7.06 C5.18 4.15, 9.59 1.08, 13.35 0.25 C17.12 -0.57, 23.48 1.7, 25.6 2.11 C27.72 2.53, 26.43 2.45, 26.07 2.75" stroke="#d9d9d9" stroke-width="1.5" fill="none" stroke-dasharray="1.5 7"></path></g><g stroke-linecap="round" transform="translate(65.15224463983498 97.81888569879658) rotate(342.67203998071824 10.636756944625404 9.218526292098261)"><path d="M4.66 1.4 C4.66 1.4, 4.66 1.4, 4.66 1.4 M4.66 1.4 C4.66 1.4, 4.66 1.4, 4.66 1.4 M2.84 7.82 C4.75 6.15, 6.18 6.22, 9.9 1.75 M3.59 8.68 C5.54 6.89, 6.88 4.06, 10.22 1.18 M5.36 12.93 C5.73 12.42, 10.65 8.68, 14.28 4.16 M4.36 14.31 C7.22 11.47, 9.5 8.15, 13.6 2.2 M6.11 17.69 C12.42 13.82, 17.02 7.44, 18.69 4.6 M6.27 17.3 C11.45 12.95, 15.59 8.23, 19.13 3.1 M11.75 16.76 C14.72 14.42, 16.35 10.9, 19.62 6.7 M11.29 18.49 C13.77 14.9, 15.91 12.69, 21.33 6.88" stroke="#d9d9d9" stroke-width="0.5" fill="none"></path><path d="M12.54 0.98 C14.59 0.88, 16.77 0.98, 18.1 2.24 C19.43 3.5, 20.48 6.4, 20.51 8.55 C20.54 10.7, 19.36 13.57, 18.26 15.15 C17.16 16.73, 15.92 17.68, 13.89 18.04 C11.86 18.4, 8.09 18.18, 6.07 17.3 C4.05 16.42, 2.58 14.67, 1.78 12.76 C0.98 10.86, 0.82 7.73, 1.28 5.86 C1.73 4, 2.69 2.37, 4.52 1.57 C6.35 0.77, 11.01 1.2, 12.28 1.05 C13.55 0.9, 12.12 0.64, 12.16 0.66" stroke="#d9d9d9" stroke-width="1.5" fill="none" stroke-dasharray="1.5 7"></path></g></svg>